# xmcd
#
# Track frame offsets:
#       150
#       2010
#       11352
#       17841
#       26970
#       38443
#       44681
#       51309
#       56868
#       65582
#       72071
#       91259
#
# Disc length: 1245 seconds
#
# Revision: 0
# Processed by: cddbd v1.5.2PL0 Copyright (c) Steve Scherf et al.
# Submitted via: WaveLab 4.01
#
DISCID=9b04db0c
DTITLE=BALL AND SMOKE MUSIC - BALL AND SMOKE MUSIC SAMPLER VOL.1
DYEAR=1900
DGENRE=
TTITLE0=INTRO
TTITLE1=THE ALL NIGHTER
TTITLE2=MO SCRILLA (FEAT. MIKE MARSHALL)
TTITLE3=LETS ROLL, LETS RIDE
TTITLE4=MOBBED UP (FOULBALL REMIX)
TTITLE5=BUSSA MOVE
TTITLE6=DON'T LIKE ME
TTITLE7=THE MIC IS MINE (REMIX)
TTITLE8=IF U WANNA GET DOWN
TTITLE9=AIN'T NO STOPPIN US
TTITLE10=MASH ON THE GAS
TTITLE11=OUTRO
EXTD=
EXTT0=
EXTT1=
EXTT2=
EXTT3=
EXTT4=
EXTT5=
EXTT6=
EXTT7=
EXTT8=
EXTT9=
EXTT10=
EXTT11=
PLAYORDER=
